# xmcd
#
# Track frame offsets:
# 187
# 5520
# 15310
# 42147
# 52667
# 64050
# 76540
# 92160
# 111407
# 122342
# 135720
# 145270
# 155995
# 169435
# 182317
#
# Disc length: 2587 seconds
#
#
# Revision: 2
# Processed by: cddbd v1.5.1PL0 Copyright (c) Steve Scherf et al.
# Submitted via: FreeRIP 2.60 
#
DISCID=b70a190f
DTITLE=Johnny Winter - Birds Can't Row Boats
DYEAR=1988
DGENRE=Blues
TTITLE0=Don't drink whiskey
TTITLE1=Suicide won't satisfy
TTITLE2=Goin' down slow
TTITLE3=Blue suede shoes
TTITLE4=I wonder if I care
TTITLE5=Easy lovin'girl
TTITLE6=Take my choice
TTITLE7=Coming up fast
TTITLE8=Living in the blues
TTITLE9=Birds can't row boats
TTITLE10=Ice cube
TTITLE11=Gone for bad
TTITLE12=Tramp
TTITLE13=The mistress
TTITLE14=Avocado green
EXTD=
EXTT0=
EXTT1=
EXTT2=
EXTT3=
EXTT4=
EXTT5=
EXTT6=
EXTT7=
EXTT8=
EXTT9=
EXTT10=
EXTT11=
EXTT12=
EXTT13=
EXTT14=
PLAYORDER=
